<svg id="图层_1" data-name="图层 1" xmlns="http://www.w3.org/2000/svg" xmlns:xlink="http://www.w3.org/1999/xlink" viewBox="0 0 300 300"><defs><style>.cls-1{fill:url(#未命名的渐变_3);}.cls-2{fill:url(#未命名的渐变_3-2);}.cls-3{fill:url(#未命名的渐变_3-3);}.cls-4{fill:url(#未命名的渐变_3-4);}.cls-5{fill:url(#未命名的渐变_3-5);}.cls-6{fill:url(#未命名的渐变_3-6);}.cls-7{fill:url(#未命名的渐变_3-7);}.cls-8{fill:url(#未命名的渐变_3-8);}.cls-9{fill:url(#未命名的渐变_3-9);}.cls-10{fill:url(#未命名的渐变_3-10);}.cls-11{fill:url(#未命名的渐变_3-11);}.cls-12{fill:url(#未命名的渐变_3-12);}.cls-13{fill:url(#未命名的渐变_3-13);}.cls-14{fill:url(#未命名的渐变_3-14);}.cls-15{fill:url(#未命名的渐变_3-15);}.cls-16{fill:url(#未命名的渐变_3-16);}.cls-17{fill:url(#未命名的渐变_3-17);}.cls-18{fill:url(#未命名的渐变_3-18);}.cls-19{fill:url(#未命名的渐变_3-19);}.cls-20{fill:url(#未命名的渐变_3-20);}.cls-21{fill:url(#未命名的渐变_3-21);}.cls-22{fill:url(#未命名的渐变_9);}.cls-23{fill:url(#未命名的渐变_9-2);}.cls-24{fill:url(#未命名的渐变_9-3);}.cls-25{fill:url(#未命名的渐变_9-4);}.cls-26{fill:url(#未命名的渐变_9-5);}.cls-27{fill:url(#未命名的渐变_9-6);}</style><linearGradient id="未命名的渐变_3" x1="247.09" y1="211.87" x2="273.64" y2="211.87" gradientUnits="userSpaceOnUse"><stop offset="0" stop-color="#5d9aff"/><stop offset="1" stop-color="#79bfff"/></linearGradient><linearGradient id="未命名的渐变_3-2" x1="204.08" y1="248.97" x2="268.05" y2="248.97" xlink:href="#未命名的渐变_3"/><linearGradient id="未命名的渐变_3-3" x1="219.1" y1="192.7" x2="250.64" y2="192.7" xlink:href="#未命名的渐变_3"/><linearGradient id="未命名的渐变_3-4" x1="213" y1="137.96" x2="243.21" y2="137.96" xlink:href="#未命名的渐变_3"/><linearGradient id="未命名的渐变_3-5" x1="172.01" y1="234.13" x2="245.15" y2="234.13" xlink:href="#未命名的渐变_3"/><linearGradient id="未命名的渐变_3-6" x1="185.56" y1="169.76" x2="220.66" y2="169.76" xlink:href="#未命名的渐变_3"/><linearGradient id="未命名的渐变_3-7" x1="152.67" y1="260.7" x2="214.77" y2="260.7" xlink:href="#未命名的渐变_3"/><linearGradient id="未命名的渐变_3-8" x1="181.15" y1="111.27" x2="213.97" y2="111.27" xlink:href="#未命名的渐变_3"/><linearGradient id="未命名的渐变_3-9" x1="210.73" y1="94.67" x2="235.12" y2="94.67" xlink:href="#未命名的渐变_3"/><linearGradient id="未命名的渐变_3-10" x1="131.79" y1="215.48" x2="216.21" y2="215.48" xlink:href="#未命名的渐变_3"/><linearGradient id="未命名的渐变_3-11" x1="126.19" y1="167.56" x2="178.97" y2="167.56" xlink:href="#未命名的渐变_3"/><linearGradient id="未命名的渐变_3-12" x1="108.54" y1="271.2" x2="168.64" y2="271.2" xlink:href="#未命名的渐变_3"/><linearGradient id="未命名的渐变_3-13" x1="80.49" y1="81.87" x2="119.04" y2="81.87" xlink:href="#未命名的渐变_3"/><linearGradient id="未命名的渐变_3-14" x1="77.11" y1="131.04" x2="118.24" y2="131.04" xlink:href="#未命名的渐变_3"/><linearGradient id="未命名的渐变_3-15" x1="33.54" y1="150.51" x2="72.44" y2="150.51" xlink:href="#未命名的渐变_3"/><linearGradient id="未命名的渐变_3-16" x1="235.5" y1="115.05" x2="253.39" y2="115.05" xlink:href="#未命名的渐变_3"/><linearGradient id="未命名的渐变_3-17" x1="120.23" y1="248.05" x2="186.69" y2="248.05" xlink:href="#未命名的渐变_3"/><linearGradient id="未命名的渐变_3-18" x1="71.9" y1="261.05" x2="138.43" y2="261.05" xlink:href="#未命名的渐变_3"/><linearGradient id="未命名的渐变_3-19" x1="26" y1="247.61" x2="82.9" y2="247.61" xlink:href="#未命名的渐变_3"/><linearGradient id="未命名的渐变_3-20" x1="26.13" y1="204.99" x2="69.07" y2="204.99" xlink:href="#未命名的渐变_3"/><linearGradient id="未命名的渐变_3-21" x1="126.19" y1="109.04" x2="173.76" y2="109.04" xlink:href="#未命名的渐变_3"/><linearGradient id="未命名的渐变_9" x1="180.27" y1="51.85" x2="212.31" y2="51.85" gradientUnits="userSpaceOnUse"><stop offset="0" stop-color="#52b0ff"/><stop offset="1" stop-color="#5ce9ff"/></linearGradient><linearGradient id="未命名的渐变_9-2" x1="133.46" y1="45.99" x2="176.73" y2="45.99" xlink:href="#未命名的渐变_9"/><linearGradient id="未命名的渐变_9-3" x1="28.72" y1="91.79" x2="64.22" y2="91.79" xlink:href="#未命名的渐变_9"/><linearGradient id="未命名的渐变_9-4" x1="250.09" y1="147.28" x2="274" y2="147.28" xlink:href="#未命名的渐变_9"/><linearGradient id="未命名的渐变_9-5" x1="54.94" y1="240.77" x2="137.6" y2="240.77" xlink:href="#未命名的渐变_9"/><linearGradient id="未命名的渐变_9-6" x1="55.23" y1="198.72" x2="100.05" y2="198.72" xlink:href="#未命名的渐变_9"/></defs><polygon class="cls-1" points="266.05 197.31 247.09 182.37 253.98 229.59 273.64 241.38 266.05 197.31"/><polygon class="cls-2" points="268.05 249.78 249.3 238.33 204.08 249.45 225.9 259.61 268.05 249.78"/><polygon class="cls-3" points="244 179.49 219.1 159.19 221.11 176.11 225.22 210.69 250.64 226.22 244 179.49"/><polygon class="cls-4" points="219.38 111.9 213.42 106.39 213 106 213.07 106.54 213.96 114.1 218.13 149.26 243.21 169.92 236.02 127.31 219.38 111.9"/><polygon class="cls-5" points="199.65 247.38 245.07 235.92 245.15 235.8 233.11 228.45 220.72 220.88 187.91 230.06 172.01 234.51 188.89 242.37 199.65 247.38"/><polygon class="cls-6" points="189.88 185.59 190.14 188.71 220.66 207.35 217.26 176.79 214.87 155.28 185.56 132.18 189.88 185.59"/><polygon class="cls-7" points="188.11 267.76 214.77 261.55 214.75 261.45 193.69 251.31 186.94 252.97 152.67 261.39 178.14 270.09 188.11 267.76"/><polygon class="cls-8" points="184.94 123.37 187.05 125.02 213.97 146.02 210.57 115.47 209.73 107.89 209.13 102.42 181.15 76.53 184.52 118.11 184.94 123.37"/><polygon class="cls-9" points="216.19 92.03 212.86 88.87 210.73 86.86 212.25 99.68 217.56 104.71 223.43 110.26 235.12 121.34 232.88 106.43 231.76 98.95 230.06 87.7 213.52 68 215.68 87.47 216.19 92.03"/><path class="cls-10" d="M184.54,198.79l-52.75,16.88v.1L167,232.18l20.6-5.89,28.6-8.17-30.74-18.77Z"/><path class="cls-11" d="M178.37,180.4l-4-50.25-48.18,19.54V205L179,188Z"/><polygon class="cls-12" points="126.19 276.65 135.6 279.36 168.64 271.65 143.19 263.04 126.19 267.21 117.33 269.39 108.54 271.55 117.31 274.08 126.19 276.65"/><path class="cls-13" d="M119,53.4,83,72.47c-.78,11.89-1.62,24.61-2.49,37.87l37.79-17.88Z"/><path class="cls-14" d="M118.24,100.43,80,118.2c-.93,14-1.89,28.63-2.87,43.45L118,145.08C118.08,129.88,118.16,114.88,118.24,100.43Z"/><path class="cls-15" d="M33.54,179.32,69.61,164.7c1-14.69,1.92-29.12,2.83-43L38.93,137.27C37.17,150.92,35.37,165,33.54,179.32Z"/><polygon class="cls-16" points="236.94 104.78 239.79 125.76 250.51 135.91 248.42 120.55 247.8 115.92 251.23 119.09 253.39 121.09 252.17 114.03 242.51 102.52 237.54 96.61 235.5 94.19 235.92 97.26 236.94 104.78"/><path class="cls-17" d="M120.24,249.92c0,.13,0,.26,0,.39l8.76,3,18.87,6.45,38.83-9.8-.16-2.08-23.92-11.51-19.56,5.47,2,1L140.86,244Z"/><polygon class="cls-18" points="103.76 270.17 117.35 266.74 126.19 264.51 138.43 261.42 126.19 257.27 117.42 254.31 110.41 251.93 109.3 252.25 100.58 254.74 91.67 257.29 91.16 257.43 90.67 257.26 88.18 256.41 71.9 260.97 103.76 270.17"/><polygon class="cls-19" points="66.29 259.35 70.76 258.08 82.9 254.61 54.39 244.87 53.18 244.45 53.26 243.17 53.34 241.95 53.4 241.15 53.47 240.01 54.56 239.66 64.66 236.43 63.02 235.88 26 247.72 63.43 258.52 66.29 259.35"/><path class="cls-20" d="M55.6,202,57,180.89l.07-1,1-.39L68.93,175c0-.73.1-1.46.14-2.18L32.46,187.69c-2.1,16.46-4.24,33.09-6.33,49.45l27.74-8.92Q54.74,215.13,55.6,202Z"/><path class="cls-21" d="M173.7,121.7l-.6-7.57-3-37.8L141.61,89.57l-15.42,7.16v45l47.57-19.29Zm-20.17-9.41v12.07l-10,4.92V116.87L133,121.7v-9.87l10.57-5.06V96.36l10-5.1V102l11-5.28.86,10.16Z"/><polygon class="cls-22" points="187.43 62.48 214.01 87.65 210.05 51.97 209.65 48.33 206.72 44.84 181.98 16.04 186.2 61.31 187.43 62.48"/><path class="cls-23" d="M176.73,55.36l-.79-9.83-2.33-29.38-18.5,9.64L133.46,37.07V75.84l8.92-4.22Z"/><path class="cls-24" d="M64.22,65.22l-30.75,16C32,93,30.37,105.43,28.72,118.36l33-15.65C62.62,89.54,63.45,77,64.22,65.22Z"/><polygon class="cls-25" points="252.45 137.76 254.85 155.44 255.43 159.75 274 174.23 269.94 150.73 267.48 136.42 253.86 123.81 250.09 120.33 252.45 137.76"/><path class="cls-26" d="M54.94,243.28,85.73,253.8h0L91,255.61h0l.17.06,8.91-2.55,8.72-2.49,28.76-8.21-28.76-13.84-5.64-2.72-2.94.94L55.07,241.26C55,241.93,55,242.61,54.94,243.28Z"/><path class="cls-27" d="M58.66,181c-1.14,17.34-2.29,34.91-3.43,52.22l35-11.27,9.48-3c.1-18.06.2-36.48.3-54.68Zm11.22,11.11c1.06-3.15,4.19-4.94,7-4h0c2.79.94,4.2,4.26,3.15,7.41s-4.19,4.93-7,4S68.83,195.26,69.88,192.11Zm-5.15,20.47c-.68-4.21,3.36-10,9.11-10.77s11.18,3.1,11.4,7.3S65.41,216.78,64.73,212.58Z"/></svg>